<?xml version="1.0" standalone="no"?>
<!DOCTYPE svg PUBLIC "-//W3C//DTD SVG 20010904//EN"
 "http://www.w3.org/TR/2001/REC-SVG-20010904/DTD/svg10.dtd">
<svg version="1.0" xmlns="http://www.w3.org/2000/svg"
 width="300.000000pt" height="300.000000pt" viewBox="0 0 300.000000 300.000000"
 preserveAspectRatio="xMidYMid meet">
<metadata>
Created by potrace 1.10, written by Peter Selinger 2001-2011
</metadata>
<g transform="translate(0.000000,300.000000) scale(0.100000,-0.100000)"
fill="#000000" stroke="none">
<path d="M1372 2174 c-138 -40 -248 -108 -339 -208 -52 -57 -149 -209 -136
-213 5 -2 89 4 188 12 99 8 188 15 198 16 9 0 17 5 17 11 0 7 -26 9 -82 4
-184 -15 -278 -18 -278 -9 0 6 17 37 39 70 152 235 437 361 701 309 94 -19
142 -36 213 -76 90 -50 96 -46 -113 -75 -116 -16 -186 -33 -176 -42 6 -6 426
50 426 57 0 8 -107 74 -168 105 -139 69 -336 85 -490 39z"/>
<path d="M2166 2178 c-13 -13 -41 -64 -60 -115 -36 -91 -36 -92 -19 -127 14
-30 19 -34 26 -21 6 11 3 22 -8 35 -17 18 -16 23 15 102 37 92 63 128 94 128
12 0 68 -20 126 -43 148 -60 147 -56 76 -237 -32 -80 -65 -153 -73 -162 -18
-20 -64 -24 -93 -8 -10 5 -23 23 -28 40 -6 16 -16 30 -21 30 -16 0 -13 -21 6
-42 16 -18 16 -18 0 -12 -10 3 -17 1 -17 -5 0 -6 9 -11 20 -11 11 0 20 -4 20
-9 0 -5 15 -14 34 -21 37 -12 72 -3 97 26 17 20 129 295 129 317 0 7 -8 25
-18 41 -13 21 -42 38 -127 72 -60 24 -119 44 -132 44 -12 0 -33 -10 -47 -22z"/>
<path d="M2213 2095 c-12 -8 -34 -48 -49 -87 -15 -40 -31 -77 -35 -83 -9 -13
7 -55 22 -55 6 0 9 -8 6 -19 -3 -14 -1 -18 9 -14 8 3 14 0 14 -6 0 -13 64 -41
96 -41 35 0 55 29 93 130 34 91 34 91 15 117 -17 22 -63 46 -129 67 -12 3 -30
-1 -42 -9z m105 -36 c28 -12 54 -29 57 -39 3 -9 -3 -35 -12 -57 l-18 -40 -83
31 c-78 29 -82 32 -77 56 10 42 34 70 59 70 13 0 46 -10 74 -21z m-53 -126
c39 -15 71 -27 72 -28 10 -5 -34 -86 -48 -90 -36 -12 -96 16 -122 56 -22 34
-24 42 -14 69 8 21 16 29 27 25 8 -3 47 -18 85 -32z"/>
<path d="M2251 2030 c-21 -12 -8 -43 22 -53 20 -6 32 -6 40 2 23 23 -33 69
-62 51z"/>
<path d="M2200 1905 c-15 -18 -6 -33 28 -46 20 -8 29 -6 41 6 15 15 14 18 -8
36 -28 23 -44 24 -61 4z"/>
<path d="M2145 2063 c-9 -20 -18 -48 -22 -62 -9 -43 13 -12 35 47 23 59 11 72
-13 15z"/>
<path d="M1823 1957 c-112 -5 -201 -13 -198 -17 3 -5 -1 -11 -7 -13 -7 -3 19
-4 57 -2 39 3 132 7 208 10 l137 6 1 -23 0 -23 9 23 c5 12 16 25 25 28 19 8 9
25 -13 22 -9 -1 -108 -6 -219 -11z"/>
<path d="M1590 1764 c-30 -3 -64 -9 -75 -14 -11 -5 -47 -16 -80 -25 -74 -21
-95 -32 -170 -88 l-60 -44 -145 -17 c-80 -9 -155 -20 -167 -22 -20 -5 -21 -3
-16 38 9 65 18 76 71 83 26 4 84 16 130 26 45 10 100 19 120 19 21 0 42 4 47
9 6 5 19 11 30 14 16 4 15 5 -6 6 -45 2 -393 -59 -400 -70 -7 -13 -31 -150
-26 -155 1 -2 39 3 82 11 44 8 129 19 188 25 105 9 110 10 149 46 52 46 161
97 258 119 106 23 310 22 426 -4 123 -27 144 -36 144 -63 1 -23 1 -23 15 2 7
14 16 23 18 20 3 -3 8 -3 11 0 3 3 -4 11 -14 18 -16 10 -20 10 -20 0 0 -9 -2
-10 -8 -2 -4 6 -48 23 -99 38 -93 26 -269 40 -403 30z"/>
<path d="M2235 1668 c4 -24 3 -29 -4 -18 -9 12 -11 12 -16 -2 -5 -12 2 -26 22
-42 33 -30 46 -33 39 -8 -3 9 -10 36 -16 60 -13 50 -35 58 -25 10z"/>
<path d="M1646 1679 c-125 -10 -193 -30 -316 -95 l-85 -44 108 6 c66 4 107 3
107 -3 0 -6 -54 -13 -122 -16 -174 -9 -321 -41 -472 -103 -13 -5 -17 -4 -13 3
4 6 33 21 64 33 77 31 89 43 33 35 -81 -12 -119 -25 -150 -52 -26 -22 -29 -28
-16 -35 49 -27 716 13 716 43 0 5 25 9 57 9 55 0 56 0 38 -20 -18 -20 -80 -28
-87 -11 -1 5 -46 -9 -98 -31 -117 -48 -212 -60 -254 -33 -24 16 -48 18 -179
17 -128 -1 -154 -4 -164 -18 -8 -11 -20 -14 -37 -10 -24 6 -26 4 -26 -23 0
-16 -3 -36 -6 -45 -5 -13 2 -16 39 -16 25 0 48 -4 51 -9 4 -5 -12 -7 -36 -4
-29 4 -39 3 -34 -5 4 -7 17 -12 28 -12 12 0 51 -7 86 -16 59 -15 72 -15 161 0
53 9 130 16 171 17 41 1 86 4 100 8 l25 7 -28 19 c-15 10 -24 21 -20 25 11 11
156 70 160 66 2 -1 -4 -22 -12 -46 -16 -45 -9 -125 15 -169 14 -28 13 -31 -13
-31 -16 0 -28 9 -35 25 -13 27 -47 45 -90 45 l-27 0 25 20 25 20 -70 0 c-38 0
-126 -9 -195 -20 l-124 -19 -93 21 c-101 23 -125 19 -104 -20 8 -14 26 -23 57
-28 28 -4 55 -16 69 -30 13 -13 36 -24 50 -24 15 0 24 -4 20 -10 -3 -5 -32
-10 -63 -11 -75 0 -143 -13 -121 -23 16 -7 727 9 822 19 42 5 482 40 725 59
57 5 84 16 39 16 l-27 0 20 33 c11 17 20 40 20 49 0 9 8 19 18 22 14 5 17 19
19 83 1 43 -2 99 -8 126 -14 58 -24 62 -169 62 -77 0 -114 -5 -140 -17 -30
-15 -83 -18 -370 -21 -301 -4 -343 -6 -417 -25 -46 -12 -99 -29 -119 -37 -53
-22 -55 -10 -2 13 118 53 222 72 398 72 l125 0 40 49 c62 75 91 91 161 90 32
-1 70 -5 84 -9 14 -4 -5 -5 -46 -3 -84 7 -108 -3 -179 -76 l-49 -51 164 0
c124 1 171 4 190 15 14 8 53 14 90 15 l65 0 -43 26 c-23 14 -47 22 -54 18 -7
-5 -8 -3 -3 6 6 10 4 12 -9 7 -10 -4 -15 -3 -11 3 3 5 -11 17 -32 25 -102 43
-235 57 -417 44z m95 -56 c-5 -10 -20 -28 -33 -40 -21 -20 -35 -23 -128 -24
-123 -1 -166 7 -149 27 22 27 137 50 257 53 57 1 62 -1 53 -16z m277 -25 c59
-23 30 -33 -103 -36 l-129 -3 20 22 c10 12 28 25 39 30 26 11 130 4 173 -13z
m153 -146 c-12 -23 -21 -58 -21 -79 l1 -38 30 63 c45 93 91 110 162 60 34 -25
28 -37 -7 -14 -40 26 -75 20 -110 -17 -38 -41 -61 -97 -40 -97 9 0 14 -11 14
-27 0 -16 3 -45 7 -66 l6 -38 -38 25 c-21 14 -46 26 -56 26 -11 0 -19 5 -19
11 0 7 -26 9 -83 4 -82 -7 -219 -32 -184 -34 39 -2 12 -20 -54 -35 -118 -26
-115 -28 -112 55 1 39 4 73 6 76 3 2 73 18 157 34 140 28 285 76 234 78 -12 1
-110 -15 -219 -34 -109 -19 -199 -34 -200 -33 0 2 -8 15 -17 29 l-16 26 146 7
c206 9 312 22 326 40 13 18 87 37 99 26 5 -4 -1 -26 -12 -48z m152 -69 c52
-59 32 -203 -28 -203 -63 0 -89 146 -35 200 25 25 42 25 63 3z m-749 -3 c68
-26 84 -174 24 -237 -45 -48 -120 -13 -134 64 -12 65 1 125 35 155 35 31 39
32 75 18z m-354 -63 c-84 -12 -387 -12 -423 0 -19 5 60 9 230 9 196 0 242 -2
193 -9z m65 -57 c-16 -4 -59 -7 -95 -7 l-65 0 50 7 c28 4 70 7 95 7 40 1 42 0
15 -7z m881 -76 c13 -14 24 -26 24 -27 0 -1 -30 -2 -67 -2 -38 0 -167 -3 -288
-7 -146 -4 -198 -3 -155 3 36 5 126 18 200 29 249 37 256 37 286 4z m-1136
-26 c0 -18 -31 -48 -50 -48 -9 0 -27 11 -39 24 l-23 24 28 5 c57 8 84 7 84 -5z
m347 -23 c2 -6 -35 -12 -97 -13 -55 -2 -135 -7 -177 -11 -43 -5 -79 -7 -81 -6
-2 2 12 12 30 23 30 19 47 20 177 19 87 -1 146 -6 148 -12z"/>
<path d="M1955 1298 c-22 -4 -62 -14 -90 -22 l-50 -15 45 3 c106 7 240 30 228
38 -15 9 -74 8 -133 -4z"/>
<path d="M2290 1350 c0 -32 9 -37 28 -18 7 7 8 17 1 30 -15 27 -29 22 -29 -12z"/>
<path d="M2256 1355 c-10 -28 -7 -45 9 -45 16 0 20 27 6 48 -7 11 -10 10 -15
-3z"/>
<path d="M2322 1297 c-11 -13 -11 -20 0 -39 l13 -23 3 23 c2 12 2 30 0 39 -3
15 -4 15 -16 0z"/>
<path d="M2246 1262 c11 -43 16 -44 28 -6 5 16 2 23 -14 27 -17 4 -19 2 -14
-21z"/>
<path d="M2286 1228 c-9 -33 -8 -38 8 -38 20 0 29 16 21 40 -8 26 -21 25 -29
-2z"/>
<path d="M1496 1338 c-9 -12 -16 -25 -16 -29 0 -6 51 -32 55 -27 6 8 -8 78
-16 78 -4 0 -15 -10 -23 -22z"/>
<path d="M1560 1320 c0 -44 8 -49 33 -22 15 16 15 20 1 40 -23 33 -34 27 -34
-18z"/>
<path d="M1475 1233 c10 -53 16 -59 31 -32 19 35 17 44 -12 58 l-26 12 7 -38z"/>
<path d="M1586 1257 c-18 -13 -18 -15 -1 -48 16 -31 19 -32 26 -14 10 27 11
75 1 75 -5 0 -16 -6 -26 -13z"/>
<path d="M1530 1184 c-15 -39 -13 -44 20 -44 33 0 36 7 18 45 -14 32 -26 32
-38 -1z"/>
<path d="M2152 1678 c-12 -15 -27 -68 -19 -68 9 0 40 70 35 76 -3 2 -10 -1
-16 -8z"/>
<path d="M2171 1630 c-13 -37 5 -41 19 -4 12 31 12 34 1 34 -5 0 -14 -13 -20
-30z"/>
<path d="M2067 1093 c-17 -16 -5 -33 21 -33 l29 0 -12 -65 -13 -65 24 0 c21 0
24 5 25 38 2 73 12 97 39 97 15 0 26 6 28 18 3 15 -5 17 -66 17 -38 0 -72 -3
-75 -7z"/>
<path d="M1879 1005 c-7 -47 -10 -87 -7 -90 3 -3 13 -3 22 1 12 4 16 19 16 55
0 27 3 49 8 49 4 0 19 -23 34 -50 45 -80 57 -70 74 68 6 48 5 52 -15 52 -19 0
-21 -6 -21 -50 0 -27 -3 -50 -7 -50 -5 0 -20 23 -35 50 -41 73 -54 66 -69 -35z"/>
<path d="M1713 1068 c-16 -20 -25 -115 -13 -138 8 -15 21 -20 50 -20 52 0 77
25 85 87 4 26 9 56 12 66 3 12 -1 17 -15 17 -21 0 -32 -25 -32 -71 0 -36 -32
-74 -54 -66 -17 7 -18 28 -2 121 2 14 -20 17 -31 4z"/>
<path d="M1539 1063 c-17 -4 -23 -24 -35 -122 -6 -48 -5 -53 12 -49 13 2 21
14 24 38 4 31 9 35 39 38 33 3 33 3 27 -32 -6 -31 -4 -36 13 -36 20 0 21 2 37
123 6 43 5 47 -15 47 -17 0 -21 -6 -21 -35 0 -33 -2 -35 -35 -35 -36 0 -36 0
-29 35 3 19 5 34 3 34 -2 -1 -11 -3 -20 -6z"/>
<path d="M1169 1043 c-13 -3 -99 -147 -99 -167 0 -12 38 -6 43 8 9 23 68 32
79 12 5 -9 17 -16 27 -16 17 0 17 4 -3 79 -23 87 -24 89 -47 84z m11 -83 c0
-23 -4 -30 -20 -30 -23 0 -24 1 -8 35 15 34 28 32 28 -5z"/>
<path d="M1287 1033 c-3 -10 -8 -40 -12 -68 -3 -27 -8 -58 -11 -67 -4 -13 0
-18 15 -18 13 0 21 9 26 30 8 36 32 39 41 5 4 -18 13 -25 30 -25 24 0 24 1 10
28 -13 26 -13 29 5 41 15 9 19 21 17 49 l-3 37 -57 3 c-47 2 -57 0 -61 -15z
m88 -23 c10 -17 -15 -40 -42 -40 -19 0 -24 4 -19 16 3 9 6 20 6 25 0 12 47 11
55 -1z"/>
<path d="M944 1024 c-54 -26 -72 -106 -34 -144 34 -34 104 -20 135 27 15 22
14 23 -5 23 -12 0 -28 -7 -36 -15 -33 -33 -90 -6 -76 35 14 44 75 69 88 35 7
-18 44 -20 44 -2 0 20 -14 35 -43 46 -35 14 -36 14 -73 -5z"/>
<path d="M1622 826 c2 -27 8 -51 14 -53 8 -3 9 9 3 43 -12 64 -21 69 -17 10z"/>
<path d="M1692 857 c-14 -16 -4 -32 26 -41 30 -10 28 -29 -3 -23 -16 3 -24 0
-22 -7 2 -6 15 -11 28 -11 36 0 39 42 4 55 -31 12 -25 31 7 22 14 -3 19 -2 14
6 -10 16 -41 15 -54 -1z"/>
<path d="M2081 856 c-26 -31 14 -86 41 -57 11 12 10 13 -4 8 -10 -3 -20 -2
-23 3 -3 5 4 12 15 15 13 4 20 14 18 23 -4 22 -32 27 -47 8z"/>
<path d="M1890 850 c0 -6 7 -25 16 -42 18 -35 31 -28 39 22 l5 35 -13 -35 -14
-34 -11 32 c-11 31 -22 42 -22 22z"/>
<path d="M2004 846 c-15 -39 22 -74 49 -47 9 9 5 11 -13 9 -19 -2 -25 2 -25
17 0 15 6 19 23 18 12 -2 22 2 22 7 0 16 -50 12 -56 -4z"/>
<path d="M1264 835 c-4 -8 -3 -32 2 -53 6 -29 9 -32 12 -14 2 12 9 22 16 22 7
0 18 -10 23 -22 9 -20 10 -16 10 22 -1 25 -6 48 -12 52 -17 13 -45 9 -51 -7z"/>
<path d="M1498 837 c-8 -24 7 -72 25 -75 9 -2 17 2 17 8 0 6 -4 8 -10 5 -6 -3
-10 5 -10 19 0 13 6 26 12 28 8 3 5 9 -9 16 -16 9 -22 9 -25 -1z"/>
<path d="M1774 836 c-15 -39 22 -74 50 -46 8 9 4 10 -16 5 -18 -5 -28 -3 -28
4 0 6 12 11 26 11 19 0 25 5 22 18 -4 22 -46 29 -54 8z"/>
<path d="M1840 815 c0 -19 5 -35 10 -35 6 0 10 13 10 29 0 16 6 32 13 34 6 3
2 6 -10 6 -20 1 -23 -4 -23 -34z"/>
<path d="M1038 829 c-12 -6 -18 -22 -18 -44 0 -28 4 -36 24 -41 26 -6 46 1 46
17 0 5 -9 4 -20 -3 -17 -11 -22 -10 -30 2 -19 28 -7 55 23 55 30 -1 36 9 11
19 -19 7 -15 8 -36 -5z"/>
<path d="M1554 829 c-5 -9 -2 -10 9 -6 9 3 19 2 22 -2 2 -5 -4 -11 -15 -14
-20 -5 -27 -31 -12 -41 5 -3 18 -3 29 0 17 5 19 11 14 37 -7 33 -33 47 -47 26z"/>
<path d="M1352 818 c-6 -6 -12 -18 -12 -24 0 -20 29 -44 45 -38 22 9 18 23 -5
17 -11 -3 -20 0 -20 6 0 6 9 11 21 11 14 0 19 5 17 17 -4 22 -29 28 -46 11z"/>
<path d="M1420 796 c0 -20 4 -36 9 -36 6 0 9 12 8 28 -3 38 26 36 35 -3 6 -29
6 -29 5 5 -2 30 -6 35 -29 38 -26 3 -28 1 -28 -32z"/>
<path d="M1117 813 c-13 -12 -7 -22 11 -17 15 5 15 4 -2 -10 -24 -20 -16 -41
17 -41 27 -1 28 8 11 63 -4 13 -26 16 -37 5z"/>
<path d="M1180 785 c0 -19 5 -35 11 -35 6 0 9 9 6 20 -3 11 1 27 10 35 13 13
12 15 -6 15 -17 0 -21 -6 -21 -35z"/>
<path d="M2105 773 c-61 -5 -1087 -53 -1129 -53 -25 0 -36 -4 -36 -15 0 -13
13 -14 83 -10 100 7 1108 55 1148 55 19 0 29 5 29 15 0 15 -4 16 -95 8z"/>
</g>
</svg>
